<svg width="1865" height="2287" viewBox="0 0 1865 2287" fill="none" xmlns="http://www.w3.org/2000/svg">
<path d="M1120.79 623.1C1237.91 563.115 1231.72 469.267 1213.99 429.841L980.903 -178.711L-1113.02 623.317L-879.932 1231.87C-866.787 1273.05 -808.693 1347.02 -681.472 1313.41C-522.445 1271.41 -504.469 1330.7 -463.187 1368.46C-421.905 1406.22 -366.866 1438.7 -250.377 1351.54C-133.888 1264.39 -10.6779 1203.01 120.684 1253.54C225.774 1293.95 304.471 1272.95 332.284 1262.3C360.098 1251.64 432.69 1214.7 483.888 1114.42C547.886 989.068 680.569 952.427 825.478 939.465C970.386 926.502 989.638 865.558 995.132 809.883C1000.63 754.208 974.395 698.08 1120.79 623.1Z" fill="url(#paint0_linear_794_1882)"/>
<path d="M1286.2 -102.124C1365.57 -207.074 1319.19 -288.893 1286.07 -316.684L811.511 -763.291L-725.192 869.595L-250.631 1316.2C-220.884 1347.57 -136.402 1388.91 -36.4582 1303.32C88.472 1196.33 130.445 1241.9 184.04 1257.95C237.635 1273.99 301.326 1279.31 368.314 1150.16C435.302 1021.02 519.557 912.165 659.818 900.528C772.027 891.219 833.756 838.078 854.168 816.389C874.58 794.699 923.88 729.861 926.368 617.294C929.479 476.586 1033.02 385.886 1157.87 311.19C1282.72 236.495 1273.55 173.243 1254.28 120.72C1235.01 68.1967 1186.98 29.0638 1286.2 -102.124Z" fill="url(#paint1_linear_794_1882)"/>
<path d="M851.881 336.391C946.371 244.816 913.048 156.865 884.575 124.336L483.908 -389.602L-1284.47 989.028L-1198.18 1213.72C-1173.58 1249.27 -1096.42 1303.04 -984.558 1233.74C-844.733 1147.12 -810.224 1198.58 -759.714 1222.63C-709.205 1246.68 -382.371 1477.02 -242.987 1424.28C-106.916 1372.79 -60.877 1221.49 79.5136 1231.44C191.826 1239.4 260.957 1196.33 284.446 1178.02C307.935 1159.7 366.572 1103.17 386.249 992.307C410.845 853.73 527.041 779.934 661.845 725.213C796.649 670.493 797.262 606.583 786.256 551.731C775.25 496.879 733.769 450.859 851.881 336.391Z" fill="url(#paint2_linear_794_1882)"/>
<defs>
<linearGradient id="paint0_linear_794_1882" x1="2059.29" y1="482.912" x2="-388.922" y2="1222.86" gradientUnits="userSpaceOnUse">
<stop stop-color="#ED374D"/>
<stop offset="0.505208" stop-color="#FA793F"/>
<stop offset="1" stop-color="#F7F651"/>
</linearGradient>
<linearGradient id="paint1_linear_794_1882" x1="1214.04" y1="-237.021" x2="-353.805" y2="1836.16" gradientUnits="userSpaceOnUse">
<stop stop-color="#ED374D"/>
<stop offset="0.505208" stop-color="#FA793F"/>
<stop offset="1" stop-color="#F7F651"/>
</linearGradient>
<linearGradient id="paint2_linear_794_1882" x1="519.162" y1="-344.617" x2="-766.953" y2="2067.22" gradientUnits="userSpaceOnUse">
<stop stop-color="#ED374D"/>
<stop offset="0.505208" stop-color="#FA793F"/>
<stop offset="1" stop-color="#F7F651"/>
</linearGradient>
</defs>
</svg>
