<svg width="521" height="713" viewBox="0 0 521 713" fill="none" xmlns="http://www.w3.org/2000/svg">
<path d="M205.452 199.491L217.144 192.693L217.174 182.157L205.481 188.945L205.452 199.491Z" fill="#E5A124"/>
<path d="M205.482 188.945L217.174 182.156C197.581 170.855 181.409 154.159 169.116 132.525C144.868 89.8665 141.669 39.2088 141.281 23.1235L129.589 29.9121C129.976 46.0071 133.176 96.6551 157.423 139.314C169.717 160.948 185.888 177.644 205.482 188.945Z" fill="#E5A124"/>
<path d="M205.811 73.8586L217.504 67.07L217.533 56.5336L205.84 63.3222L205.811 73.8586Z" fill="#E5A124"/>
<path d="M205.84 63.3226L217.532 56.534L132.196 7.31927L120.503 14.1078L205.84 63.3226Z" fill="#F6E6A4"/>
<path d="M120.504 14.1078L120.378 19.1823C120.359 19.8699 120 36.2458 123.49 59.6039C125.546 73.365 128.532 86.7195 132.361 99.2701C137.199 115.162 143.424 129.833 150.831 142.878C164.918 167.659 183.29 186.708 205.453 199.481L205.482 188.935C185.888 177.634 169.717 160.939 157.423 139.304C133.176 96.6457 129.976 45.988 129.589 29.9027L205.802 73.8589L205.831 63.3226L120.504 14.1078Z" fill="#ECB82A"/>
<g opacity="0.1">
<g opacity="0.1">
<path opacity="0.1" d="M484.41 574.741L343.414 656.591L125.458 531.017L266.454 449.176L484.41 574.741Z" fill="black"/>
</g>
</g>
<path d="M455.752 551.886L455.693 575.341L329.482 648.602L329.55 625.147L455.752 551.886Z" fill="#1E397F"/>
<path d="M329.55 625.147L329.482 648.602L112.786 523.628L112.854 500.173L329.55 625.147Z" fill="#112350"/>
<path d="M455.75 551.887L329.548 625.147L112.853 500.173L239.054 426.913L455.75 551.887Z" fill="#32719E"/>
<path d="M418.95 437.275L418.708 549.62L324.733 604.171L324.965 491.835L418.95 437.275Z" fill="#1E5780"/>
<path d="M324.965 491.835L324.732 604.171L154.243 505.858L154.486 393.512L324.965 491.835Z" fill="#12324F"/>
<path d="M418.949 437.275L324.964 491.836L154.485 393.513L248.46 338.962L418.949 437.275Z" fill="#2B839F"/>
<path d="M286.718 498.082L186.606 440.345L186.441 499.612L286.543 557.339L286.718 498.082Z" fill="#F5A11E"/>
<path opacity="0.1" d="M340.7 393.871C375.447 413.907 386.907 439.861 366.286 451.821C345.664 463.79 300.785 457.244 266.038 437.207C231.291 417.171 219.841 391.227 240.452 379.257C261.074 367.288 305.953 373.834 340.7 393.871Z" fill="black"/>
<path d="M362.35 410.973L362.292 431.706C362.273 438.127 358.967 443.724 352.044 447.753C331.423 459.723 286.544 453.176 251.797 433.14C228.732 419.834 215.925 403.923 215.963 391.236L216.022 370.503C215.983 383.199 228.79 399.11 251.855 412.406C286.602 432.442 331.491 438.989 352.102 427.019C359.025 422.991 362.331 417.393 362.35 410.973Z" fill="#E5A124"/>
<path d="M326.507 369.06C361.254 389.097 372.714 415.05 352.092 427.01C331.471 438.98 286.592 432.433 251.845 412.397C217.097 392.36 205.647 366.416 226.259 354.447C246.881 342.477 291.759 349.024 326.507 369.06Z" fill="#F7C02C"/>
<path d="M308.997 390.733C307.553 392.108 300.233 398.79 288.87 398.674C277.895 398.558 270.866 392.186 269.354 390.733C269.354 338.468 269.354 286.203 269.354 233.928H308.997V390.733Z" fill="#E5A124"/>
<path d="M173.352 70.1497C173.352 70.1497 165.189 311.42 289.17 311.42V90.1377L173.352 70.1497Z" fill="#F7C02C"/>
<path d="M404.998 70.1498C404.998 70.1498 413.162 311.42 289.18 311.42V90.1379L404.998 70.1498Z" fill="#F7C02C"/>
<path d="M370.881 19.6467C325.459 -6.5489 252.057 -6.5489 206.926 19.6467C161.795 45.8423 162.038 88.3169 207.46 114.503C252.881 140.698 326.283 140.698 371.414 114.503C416.545 88.3072 416.302 45.8423 370.881 19.6467Z" fill="#F6E6A4"/>
<path d="M376.398 93.2077C372.141 97.4687 366.877 101.468 360.604 105.109C321.417 127.857 257.661 127.857 218.212 105.109C211.726 101.371 206.306 97.2556 201.953 92.8784C179.761 70.6146 184.996 41.7268 217.756 22.7169C256.944 -0.0311522 320.699 -0.0311522 360.149 22.7169C393.277 41.8333 398.726 70.9148 376.398 93.2077Z" fill="#E5A124"/>
<path d="M376.398 93.2076C372.141 97.4686 366.877 101.468 360.604 105.109C321.417 127.857 257.661 127.857 218.212 105.109C211.726 101.371 206.306 97.2556 201.953 92.8783C206.209 88.6173 211.474 84.6178 217.756 80.9765C256.944 58.2285 320.699 58.2285 360.149 80.9862C366.615 84.7146 372.044 88.8401 376.398 93.2076Z" fill="#D29420"/>
<path d="M404.842 274.427C403.475 274.901 402.07 275.289 400.625 275.569C399.51 275.792 398.366 275.947 397.212 276.054C396.204 276.141 395.167 276.189 394.12 276.199C393.17 276.199 392.21 276.17 391.231 276.102C390.319 276.034 389.388 275.947 388.458 275.812C387.556 275.686 386.645 275.54 385.724 275.356C384.822 275.182 383.92 274.979 382.999 274.746C382.088 274.524 381.177 274.262 380.246 273.991C379.315 273.71 378.384 273.4 377.434 273.071C376.474 272.732 375.515 272.374 374.535 271.977C373.537 271.58 372.538 271.153 371.52 270.698C370.473 270.233 369.416 269.73 368.35 269.207C367.245 268.655 366.12 268.084 364.986 267.464C364.074 266.97 363.163 266.457 362.232 265.924L350.54 272.713C351.461 273.245 352.382 273.758 353.293 274.252C354.428 274.862 355.543 275.444 356.658 275.996C357.724 276.518 358.781 277.022 359.828 277.487C360.846 277.942 361.845 278.368 362.843 278.765C363.822 279.153 364.782 279.521 365.742 279.86C366.692 280.189 367.623 280.499 368.554 280.78C369.484 281.06 370.396 281.312 371.307 281.545C372.228 281.777 373.13 281.98 374.031 282.155C374.952 282.339 375.864 282.484 376.765 282.61C377.706 282.736 378.627 282.833 379.538 282.9C380.517 282.968 381.477 282.997 382.427 282.997C383.474 282.997 384.502 282.949 385.52 282.852C386.683 282.745 387.818 282.581 388.933 282.368C390.377 282.087 391.783 281.699 393.15 281.225C395.089 280.547 396.96 279.675 398.744 278.61L410.446 271.822C408.643 272.877 406.781 273.749 404.842 274.427Z" fill="#E5A124"/>
<path d="M448.045 194.736L436.343 201.524C436.343 201.65 436.352 202.299 436.352 203.393C436.343 204.817 436.313 207.005 436.197 209.765C436.1 212.138 435.935 214.946 435.683 218.065C435.46 220.815 435.16 223.807 434.762 226.964C434.404 229.802 433.977 232.765 433.444 235.816C433.308 236.61 433.163 237.414 433.007 238.227C432.62 240.299 432.203 242.323 431.747 244.299C431.117 247.069 430.429 249.732 429.672 252.298C428.897 254.952 428.063 257.498 427.161 259.919C426.192 262.525 425.164 264.984 424.059 267.308C424.02 267.386 423.981 267.473 423.943 267.551C422.692 270.165 421.354 272.596 419.929 274.843C415.76 281.418 410.854 286.415 405.289 289.747L416.981 282.958C422.546 279.627 427.452 274.63 431.621 268.054C433.046 265.807 434.384 263.377 435.635 260.762C435.674 260.685 435.712 260.597 435.751 260.52C436.856 258.196 437.884 255.736 438.854 253.131C439.755 250.71 440.589 248.163 441.365 245.51C442.111 242.943 442.8 240.28 443.439 237.51C443.885 235.535 444.312 233.511 444.7 231.438C444.855 230.635 445 229.831 445.136 229.027C445.66 225.977 446.096 223.013 446.455 220.176C446.852 217.019 447.153 214.026 447.376 211.276C447.628 208.158 447.792 205.349 447.889 202.977C448.006 200.217 448.045 198.028 448.045 196.605C448.054 195.51 448.045 194.862 448.045 194.736Z" fill="#E5A124"/>
<path d="M448.044 194.736L436.342 201.525L436.245 196.324L447.937 189.536L448.044 194.736Z" fill="#E5A124"/>
<path d="M447.936 189.535L436.244 196.324L350.907 147.109L362.599 140.321L447.936 189.535Z" fill="#F6E6A4"/>
<path d="M433.007 238.228C430.884 249.577 427.83 259.445 423.942 267.551C419.027 277.807 412.754 285.283 405.289 289.747C391.105 298.23 372.684 296.051 350.521 283.268L350.55 272.722C370.144 284.024 386.354 285.999 398.735 278.591C423.138 263.987 426.618 217.184 427.093 201.592L350.88 157.636L350.909 147.1L436.245 196.315L436.352 201.515C436.352 202.232 436.623 218.975 433.007 238.228Z" fill="#ECB82A"/>
<path opacity="0.1" d="M20.403 703.914C29.3075 703.914 36.526 701.343 36.526 698.171C36.526 695 29.3075 692.429 20.403 692.429C11.4985 692.429 4.28003 695 4.28003 698.171C4.28003 701.343 11.4985 703.914 20.403 703.914Z" fill="black"/>
<path d="M4.95871 637.636C4.11524 639.02 5.61799 646.768 5.75372 647.436C4.63878 647.94 3.33963 648.191 2.32164 648.308C2.16652 647.281 0.770421 637.926 0.731641 636.377C0.69286 634.73 6.44208 625.782 7.09165 624.949C7.74123 624.107 8.7883 624.107 9.52512 624.949C10.3589 625.898 11.3478 628.029 10.9309 629.133C10.514 630.227 5.83128 636.193 4.95871 637.636Z" fill="#4F87C6"/>
<path d="M7.35352 651.552C6.82029 651.813 5.90896 650.225 5.90896 650.225C5.90896 650.225 5.90895 653.682 5.13334 654.099C4.34804 654.515 2.68047 654.331 1.79821 653.837C0.925649 653.343 2.33145 648.404 2.33145 648.404C2.33145 648.404 2.33144 648.375 2.32174 648.308C3.33973 648.191 4.63889 647.949 5.75383 647.436C5.75383 647.465 5.76352 647.484 5.76352 647.484C6.70395 648.55 7.88676 651.281 7.35352 651.552Z" fill="#FAC2B0"/>
<path d="M16.835 608.448C18.6383 609.116 21.6147 608.603 19.9375 616.611C19.9375 616.611 19.2103 620.03 18.4153 620.156C17.6203 620.282 15.594 619.71 14.4209 618.035C13.2575 616.36 16.835 608.448 16.835 608.448Z" fill="#FAC2B0"/>
<path d="M15.7685 623.187C15.7685 623.187 16.2727 619.953 17.5718 619.285L12.2686 617.319L11.5996 622.054L15.7685 623.187Z" fill="#FAC2B0"/>
<path d="M13.2091 621.676C15.1772 621.996 19.1425 623.429 20.8586 624.959C22.5746 626.499 23.6508 629.598 22.9721 632.852C22.2935 636.106 21.8281 639.456 22.5455 641.635C23.263 643.814 23.9804 646.632 23.9804 646.632C23.9804 646.632 14.8282 649.915 9.64131 645.422C9.64131 645.422 10.6108 640.425 9.64131 636.958C8.67179 633.491 6.2771 628.813 7.39204 624.891C8.48759 620.96 13.2091 621.676 13.2091 621.676Z" fill="#3C77BB"/>
<path d="M37.3699 641.984C36.5943 644.037 35.6926 644.783 35.6926 644.783C35.6926 644.783 27.4712 641.103 25.5709 639.466C23.6804 637.82 19.9962 631.389 19.1043 630.072C18.2123 628.746 18.7455 626.567 19.3563 626.034C20.5973 624.959 20.9075 624.63 22.5848 627.012C24.2621 629.385 26.618 634.924 28.5861 636.28C30.5542 637.636 37.2342 641.955 37.2342 641.955C37.2342 641.955 37.2826 641.964 37.3699 641.984Z" fill="#4F87C6"/>
<path d="M40.7725 647.494C40.4525 648.346 38.019 649.673 37.8445 649.101C37.67 648.53 38.4165 647.639 38.4165 647.639C38.4165 647.639 36.1285 646.283 35.7019 644.782C35.7019 644.782 36.6035 644.037 37.3792 641.984C37.9803 642.09 40.3459 642.555 40.7822 643.427C41.2669 644.424 41.0924 646.642 40.7725 647.494Z" fill="#FAC2B0"/>
<path d="M28.6633 688.884C27.0345 689.755 25.5899 689.998 24.5622 690.027C24.4362 688.119 24.3683 686.085 23.9611 685.088C23.1758 683.161 21.0623 681.156 20.054 678.725C19.0457 676.294 20.4224 671.017 20.4224 671.017C20.4224 671.017 14.0139 662.136 10.6594 656.103C7.3049 650.07 9.62203 645.421 9.62203 645.421L19.0457 646.254C19.0457 646.254 24.6592 667.492 24.9985 669.39C25.3378 671.288 27.5192 686.337 28.6051 688.768C28.6245 688.816 28.6439 688.855 28.6633 688.884Z" fill="#67481C"/>
<path d="M36.4099 691.624C35.7409 693.135 31.9695 692.631 30.7867 693.668C29.6136 694.704 26.5984 695.304 25.4156 694.084C25.0763 693.735 24.8824 693.019 24.7563 692.118C28.1109 692.438 29.5264 690.927 30.0305 690.123C31.5042 690.695 33.5208 690.152 34.4806 690.036C35.8282 689.862 37.0789 690.114 36.4099 691.624Z" fill="#4C3718"/>
<path d="M30.0301 690.124C29.5259 690.937 28.1104 692.438 24.7559 692.119C24.659 691.489 24.6105 690.773 24.562 690.027C25.5897 689.998 27.0343 689.746 28.6631 688.884C28.983 689.523 29.4678 689.901 30.0301 690.124Z" fill="#FAC2B0"/>
<path d="M12.6473 702.713C12.7152 703.507 9.03105 704.524 7.48952 703.44C5.94799 702.345 0.644748 695.983 1.50762 694.443C2.38018 692.903 3.62117 692.68 3.62117 692.68C4.5422 695.15 6.75269 696.438 8.1294 697.029C8.55599 698.975 9.31222 700.844 9.9521 701.261C11.1834 702.064 12.5698 701.919 12.6473 702.713Z" fill="#4C3718"/>
<path d="M19.0463 672.053C12.7929 684.12 9.22512 690.947 8.12957 692.545C8.0617 692.651 8.00354 692.768 7.95506 692.903C6.42323 691.547 4.93018 690.647 4.93018 690.647C4.93018 690.647 6.82072 679.975 9.80682 675.685C12.7832 671.395 14.189 670.601 14.189 670.601C14.189 670.601 11.4841 654.535 12.4245 650.177C13.3746 645.819 14.189 645.887 14.189 645.887L23.9714 646.632C23.9714 646.642 25.3093 659.987 19.0463 672.053Z" fill="#805A24"/>
<path d="M8.12907 697.038C6.75236 696.447 4.54188 695.159 3.62085 692.69L4.92968 690.646C4.92968 690.646 6.43243 691.547 7.95456 692.903C7.64432 693.813 7.78005 695.45 8.12907 697.038Z" fill="#FAC2B0"/>
<path d="M20.8871 611.798C20.1212 614.2 18.2306 613.832 18.2791 615.468C18.3276 617.095 16.7957 619.265 14.0036 619.623C14.0036 619.623 11.89 631.196 14.0036 636.377C13.8 636.193 5.33614 628.513 10.6491 617.793L10.746 616.534C10.746 616.534 8.72943 611.934 10.6491 608.767C12.5687 605.6 16.0298 606.946 16.0298 606.946C19.4813 608.273 21.653 609.406 20.8871 611.798Z" fill="#87574E"/>
<path d="M14.7602 618.703L14.0137 619.623C12.8988 617.928 10.6592 617.793 10.6592 617.793L10.7561 616.534C14.0137 617.037 14.7602 618.703 14.7602 618.703Z" fill="#4F332E"/>
<path opacity="0.1" d="M181.123 693.485C190.028 693.485 197.246 690.914 197.246 687.743C197.246 684.571 190.028 682 181.123 682C172.219 682 165 684.571 165 687.743C165 690.914 172.219 693.485 181.123 693.485Z" fill="black"/>
<path d="M191.586 678.637C190.587 680.079 188.745 680.932 187.359 681.397V681.387C186.409 678.21 184.702 677.058 183.112 673.978C181.571 670.976 182.492 667.151 182.531 666.957C182.501 667.035 181.997 667.655 175.385 657.98C168.444 647.822 170.46 639.416 170.46 639.416L187.271 642.902C187.271 642.902 188.59 661.999 189.269 664.314C189.938 666.59 189.792 678.065 191.586 678.637Z" fill="#004A73"/>
<path d="M195.473 682.53C193.786 682.937 192.943 686.239 189.782 686.588C186.622 686.946 188.309 684.554 187.358 681.387C188.745 680.922 190.587 680.07 191.586 678.627C191.615 678.637 191.644 678.637 191.673 678.647C193.563 678.85 198.314 674.967 200.108 677.155C201.901 679.344 197.16 682.123 195.473 682.53Z" fill="#02263A"/>
<path d="M187.282 642.893C187.282 642.893 182.25 662.532 181.348 665.97C180.437 669.408 172.196 681.91 168.919 685.416L164.275 683.082C164.275 683.082 167.785 673.485 170.053 671.219C172.322 668.953 173.514 668.953 174.251 667.074C174.988 665.195 172.351 649.953 174.251 645.479L175.356 642.757L187.282 642.893Z" fill="#005887"/>
<path d="M172.254 692.93C169.917 692.02 161.744 689.241 162.006 686.519C162.268 683.798 164.275 683.081 164.275 683.081L168.919 685.415C168.919 685.415 171.701 689.434 174.251 690.926C176.801 692.417 174.59 693.841 172.254 692.93Z" fill="#02263A"/>
<path d="M173.909 617.743C173.104 619.312 169.594 628.047 168.887 629.722C168.179 631.397 167.539 643.319 167.588 644.5C167.588 644.577 167.607 644.645 167.626 644.723C165.784 644.452 163.806 645.304 163.806 645.304C163.806 645.304 163.806 629.712 164.185 627.824C164.563 625.936 168.605 615.496 169.304 613.55C170.011 611.613 171.543 611.613 172.871 612.203C174.83 613.065 174.723 616.184 173.909 617.743Z" fill="#D064A5"/>
<path d="M168.628 648.984C168.308 649.846 166.088 651.899 164.527 650.33C162.956 648.761 163.819 645.314 163.819 645.314C163.819 645.314 165.797 644.462 167.639 644.733C167.649 644.762 167.649 644.791 167.668 644.83C168.027 645.846 169.772 646.592 169.869 647.425C169.976 648.335 168.628 648.984 168.628 648.984Z" fill="#FAC2B0"/>
<path d="M167.658 644.82C167.648 644.791 167.639 644.762 167.629 644.723C169.468 644.994 167.658 644.82 167.658 644.82Z" fill="#FAC2B0"/>
<path d="M183.132 597.503C185.876 597.658 187.282 597.503 187.233 602.19C187.214 604.718 186.748 609.289 185.566 609.531C184.392 609.763 180.999 610.499 179.865 609.037C178.73 607.574 178.808 602.074 179.361 600.273C179.913 598.462 183.132 597.503 183.132 597.503Z" fill="#FAC2B0"/>
<path d="M177.441 606.974L176.791 611.797C176.791 611.797 179.991 613.588 183.122 612.175V606.984H177.441V606.974Z" fill="#FAC2B0"/>
<path d="M178.343 608.446C179.991 608.93 183.287 607.081 184.441 603.139C185.595 599.198 187.204 600.137 187.466 599.459C187.718 598.791 188.135 596.564 186.38 596.506C184.616 596.438 183.326 596.38 182.909 596.021C182.493 595.673 180.476 594.598 178.983 595.16C177.49 595.721 175.425 597.416 175.628 599.488C175.628 599.488 174.378 600.447 174.698 602.19C175.018 603.933 176.181 604.602 176.491 605.822C176.802 607.042 176.598 607.933 178.343 608.446Z" fill="#6B461B"/>
<path d="M183.483 606.064C183.483 606.064 181.165 604.525 182.087 602.849C183.008 601.174 184.51 604.631 184.51 604.631L183.483 606.064Z" fill="#FAC2B0"/>
<path d="M179.603 610.683C183.5 611.216 189.608 615.176 189.812 616.319C190.015 617.462 189.608 631.891 188.803 635.174C187.999 638.467 187.281 642.892 187.281 642.892C187.281 642.892 175.773 646.049 170.47 639.406C170.47 639.406 171.682 632.356 171.139 629.538C170.606 626.72 167.784 614.576 170.47 611.893C173.146 609.211 179.603 610.683 179.603 610.683Z" fill="#BF529D"/>
<path d="M203.307 650.417C200.815 651.279 201.969 649.274 201.969 648.412C201.969 647.55 200.389 645.875 200.34 644.355C200.34 644.355 191.537 637.76 189.87 634.893C188.192 632.027 185.138 623.475 184.508 620.512C183.888 617.549 186.612 616.038 186.612 616.038C188.91 615.176 189.821 615.205 191.062 618.934C192.313 622.662 192.739 629.16 194.795 632.172C196.588 634.787 201.048 638.922 202.745 641.178C202.997 641.517 203.191 641.817 203.307 642.059C204.16 643.919 205.789 649.555 203.307 650.417Z" fill="#D064A5"/>
<path d="M203.307 650.417C200.816 651.279 201.969 649.275 201.969 648.413C201.969 647.551 200.389 645.875 200.341 644.355C200.341 644.355 203.084 644.006 202.745 641.179C202.997 641.518 203.191 641.818 203.307 642.06C204.16 643.919 205.789 649.555 203.307 650.417Z" fill="#FAC2B0"/>
<path opacity="0.1" d="M38.246 513.34C38.246 516.516 31.0328 519.082 22.123 519.082C13.2132 519.082 6 516.506 6 513.34C6 510.163 13.2132 507.597 22.123 507.597C31.0328 507.597 38.246 510.173 38.246 513.34Z" fill="black"/>
<path d="M16.1027 509.901C16.1124 513.019 16.5293 517.697 12.9615 517.319C9.14156 516.912 11.2163 508.497 11.5557 507.151C11.7302 506.444 12.0986 505.65 12.5058 504.856C12.0598 508.1 12.4282 512.303 13.7274 512.961C14.7551 513.504 15.6373 511.354 16.1027 509.901Z" fill="#009253"/>
<path d="M29.094 486.165C27.7755 491.792 26.709 497.67 27.3877 501.912C25.7104 502.377 24.3434 502.299 23.3836 502.096C24.0429 498.542 23.2769 492.489 23.3351 490.116C23.403 487.308 24.8766 484.296 24.8766 484.296C24.4113 479.212 23.8684 467.175 23.8684 467.175C23.8684 467.175 22.9958 483.154 22.9376 484.693C22.8794 485.952 18.3615 499.665 16.7037 506.221C14.8131 505.776 13.9018 504.1 13.5721 502.909C13.5915 502.87 13.6109 502.841 13.6303 502.812C14.3671 501.476 14.9682 493.312 15.1428 491.104C15.3173 488.896 17.6441 486.088 18.2452 484.287C18.8463 482.485 14.0278 472.055 13.291 466.962C12.5542 461.877 14.561 458.343 14.561 458.343L28.2408 456.687C30.8682 460.057 31.1688 477.266 29.094 486.165Z" fill="#203619"/>
<path d="M34.3778 510.773C32.7005 511.509 25.5455 510.172 23.6646 509.301C21.9292 508.497 21.4639 506.899 22.5594 504.401C23.1605 505.137 24.1106 506.028 25.5649 506.996C28.1438 508.7 29.8017 507.887 30.5676 507.257C30.587 507.267 30.6161 507.287 30.6452 507.296C35.7157 510.037 34.3778 510.773 34.3778 510.773Z" fill="#009253"/>
<path d="M30.558 507.257C29.8018 507.887 28.1342 508.71 25.5553 506.996C24.101 506.027 23.1606 505.127 22.5498 504.4C22.6468 504.197 22.7437 503.974 22.8601 503.752C23.0927 503.306 23.2576 502.744 23.3739 502.096C24.3434 502.299 25.7007 502.386 27.378 501.912C27.7755 504.333 28.7353 506.24 30.558 507.257Z" fill="#FAC2B0"/>
<path d="M13.532 501.641L13.4365 501.85C13.4461 501.726 13.4843 501.65 13.532 501.641Z" fill="#FAC2B0"/>
<path d="M16.7035 506.221C16.3448 507.655 16.1218 508.749 16.1024 509.301C16.1024 509.494 16.0927 509.698 16.1024 509.911C15.637 511.364 14.7548 513.504 13.7174 512.981C12.4182 512.322 12.0498 508.119 12.4958 504.875C12.8448 504.197 13.2326 503.529 13.5719 502.919C13.8919 504.11 14.8129 505.776 16.7035 506.221Z" fill="#FAC2B0"/>
<path d="M17.2368 420.595C16.0831 420.178 13.5042 419.171 12.4959 421.515C11.4876 423.858 11.9045 429.562 13.5818 440.467L20.2036 439.411L17.2368 420.595Z" fill="#AA2E24"/>
<path d="M17.9553 434.384C19.4968 433.745 24.6546 433.416 26.1282 433.416C27.6019 433.416 29.3083 439.681 29.318 441.909C29.3373 444.553 28.7556 446.761 27.4662 448.823C26.1767 450.896 28.2515 456.687 28.2515 456.687C28.2515 456.687 24.6934 463.679 14.5716 458.343C14.5716 458.343 16.6561 451.816 13.5924 447.167C10.5288 442.519 10.9457 439.575 12.3224 438.335C13.6894 437.106 17.9553 434.384 17.9553 434.384Z" fill="#007A6D"/>
<path d="M38.5183 431.276C36.5502 433.378 33.1278 436.835 29.0655 439.246C29.0655 439.246 26.0891 439.973 25.0033 436.738C24.4022 434.956 24.2083 433.755 28.1736 432.913C31.4699 432.216 34.3494 429.766 35.6291 428.487C36.2787 429.339 37.2579 430.434 38.5183 431.276Z" fill="#007A6D"/>
<path d="M12.2248 453.2C12.0309 453.684 11.8661 454.207 11.7401 454.769C9.98525 454.788 8.44373 453.985 7.38696 453.219C8.21105 449.636 9.80103 443.874 10.4603 441.744C11.1971 439.391 13.0198 438.277 14.5226 439.303C16.1029 440.378 14.3868 447.893 12.2248 453.2Z" fill="#007A6D"/>
<path d="M11.7792 470.71C11.3332 472.075 9.71411 475.377 7.60058 473.615C5.48705 471.852 8.38587 469.935 8.49251 468.356C8.60885 466.778 6.42745 457.636 7.15459 454.247C7.22245 453.937 7.30003 453.588 7.38729 453.22C8.44405 453.985 9.98556 454.799 11.7404 454.77C10.4315 460.396 12.1864 469.46 11.7792 470.71Z" fill="#FAC2B0"/>
<path d="M47.2921 415.752C45.9057 417.98 45.1592 419.21 45.1592 419.21C45.1592 419.21 41.0485 428.69 40.1565 429.514C39.8948 429.756 39.3325 430.395 38.5181 431.266C37.248 430.424 36.2688 429.33 35.6289 428.477C35.8907 428.216 36.0749 428.003 36.1912 427.867C36.8796 427.025 42.6288 418.512 42.7257 417.728C42.8227 416.934 41.1454 410.852 42.3282 411.443C43.5207 412.034 43.7631 413.767 43.7631 413.767C43.7631 413.767 44.6066 409.758 45.7409 410.155C46.9044 410.562 48.6785 413.525 47.2921 415.752Z" fill="#FAC2B0"/>
<path d="M23.5007 423.413C23.5007 423.413 24.6156 420.808 22.7638 420.11C20.9121 419.413 17.8775 419.142 16.1614 420.624C14.4454 422.105 11.4399 426.705 15.9772 431.838L23.5007 423.413Z" fill="#B93426"/>
<path d="M23.0351 422.173C23.7138 423.18 26.1182 428.787 22.7443 433.91C22.7443 433.91 15.1336 436.05 16.7236 424.197L23.0351 422.173Z" fill="#FAC2B0"/>
<path d="M23.7908 421.737C23.878 423.074 22.2105 428.816 17.0527 428.323C11.8949 427.819 15.9668 421.912 18.2549 421.408C20.5429 420.904 23.7908 421.737 23.7908 421.737Z" fill="#B93426"/>
<path d="M16.5589 429.523L16.4717 435.382C16.4717 435.382 17.955 437.145 20.4079 436.661C20.4079 436.661 21.7264 431.673 21.8428 431.702C21.9494 431.731 16.5589 429.523 16.5589 429.523Z" fill="#FAC2B0"/>
<path d="M17.9546 428.584C17.9546 428.584 16.8202 425.814 15.5405 426.966C14.348 428.041 16.3839 429.736 17.179 429.707L17.9546 428.584Z" fill="#FAC2B0"/>
<path opacity="0.1" d="M416.786 440.352C416.786 443.422 425.128 445.92 435.413 445.92C445.698 445.92 454.039 443.431 454.039 440.352C454.039 437.282 445.698 434.784 435.413 434.784C425.116 434.784 416.786 437.272 416.786 440.352Z" fill="black"/>
<path d="M425.139 438.996C427.21 440.12 431.526 436.449 432.567 433.496L432.937 437.166H433.724C433.724 437.166 434.187 432.76 434.002 430.116C433.955 429.457 433.863 428.905 433.724 428.557C433.724 428.557 433.735 428.402 433.759 428.111C433.909 425.739 434.511 414.495 432.937 409.101C432.937 409.101 435.98 391.583 434.395 384.784L425.602 384.019C425.602 384.019 423.497 395.156 425.996 409.973C427.916 421.381 428.68 426.387 428.899 428.741C428.969 429.448 428.98 429.913 428.969 430.242C428.934 430.958 427.453 432.885 426.239 434.764C425.035 436.624 424.11 438.434 425.139 438.996Z" fill="#FAC2B0"/>
<path d="M425.996 409.963C427.916 421.371 428.68 426.378 428.9 428.731C431.803 428.867 433.134 428.47 433.747 428.111C433.897 425.739 434.499 414.495 432.926 409.101C432.926 409.101 435.968 391.583 434.383 384.784L425.591 384.019C425.602 384.01 423.497 395.146 425.996 409.963Z" fill="#543A17"/>
<path d="M425.139 438.996C427.21 440.119 431.525 436.449 432.566 433.495L432.937 437.166H433.723C433.723 437.166 434.186 432.759 434.001 430.116C433.631 430.241 433.18 430.571 432.879 431.384C432.254 433.069 430.704 435.703 429.292 435.781C428.529 435.82 427.198 435.403 426.238 434.764C425.035 436.623 424.109 438.434 425.139 438.996Z" fill="#443016"/>
<path d="M440.56 439.703C440.884 438.831 441.277 437.97 441.613 437.263C441.636 436.74 441.67 436.343 441.74 436.139C442.156 435.064 442.526 433.844 441.879 432.149C440.976 432.682 439.183 433.331 436.453 432.479C436.603 433.728 436.603 434.832 436.291 436.168C436.58 437.079 435.967 438.425 435.759 439.693C435.516 441.243 439.796 441.746 440.56 439.703Z" fill="#FAC2B0"/>
<path d="M436.119 444.487C441.371 445.029 441.487 439.751 441.614 437.262C441.278 437.969 440.885 438.831 440.561 439.703C439.798 441.746 435.517 441.252 435.771 439.703C435.98 438.425 436.593 437.078 436.304 436.178C436.118 436.962 435.829 437.834 435.413 438.851C433.527 443.344 436.119 444.487 436.119 444.487Z" fill="#443016"/>
<path d="M430.056 385.297C430.056 385.297 430.936 405.934 431.202 410.437C431.468 414.941 434.846 422.804 435.656 427.791C435.98 429.757 436.292 431.19 436.454 432.488C439.185 433.34 440.978 432.692 441.88 432.159C441.834 432.043 441.788 431.926 441.741 431.801C440.908 429.912 441.105 419.599 441.14 417.468C441.174 415.338 439.358 411.415 439.358 411.415C439.358 411.415 441.602 403.223 442.597 398.555C443.592 393.887 442.065 387.166 442.065 387.166C436.443 387.157 430.056 385.297 430.056 385.297Z" fill="#63441A"/>
<path d="M427.662 364.37C426.528 366.045 424.33 374.161 423.404 375.207C422.479 376.262 416.521 382.295 416.521 382.295C416.521 382.295 418.268 383.254 418.765 384.445C418.765 384.445 426.47 379.913 427.673 377.541C428.876 375.158 431.283 369.125 431.827 366.016C432.359 362.908 428.807 362.685 427.662 364.37Z" fill="#DC67A6"/>
<path d="M416.509 382.305C416.509 382.305 411.233 381.85 411.025 382.411C410.817 382.983 413.663 383.544 413.663 383.544C413.663 383.544 409.822 385.413 410.007 385.83C410.192 386.246 413.397 388.309 415.386 387.002C417.376 385.694 418.753 384.455 418.753 384.455C418.753 384.455 418.452 383.215 416.509 382.305Z" fill="#FAC2B0"/>
<path d="M436.628 360.691C437.958 360.855 442.806 362.724 445.143 365.881C447.48 369.038 442.771 373.851 442.158 376.582C441.545 379.323 442.771 386.596 442.054 387.167C441.336 387.738 432.104 388.581 425.602 384.01C425.602 384.01 427.361 379.081 427.072 376.553C426.782 374.026 426.678 372.67 426.135 371.353C425.591 370.026 424.989 367.15 426.389 365.145C427.789 363.141 429.154 359.742 436.628 360.691Z" fill="#D33693"/>
<path d="M432.486 348.324C432.486 348.324 441.58 346.251 443.084 352.594C444.588 358.938 437.056 363.257 437.056 363.257L432.486 348.324Z" fill="#935223"/>
<path d="M434.106 362.036C434.106 362.036 429.49 365.242 429.675 370.8C429.675 370.8 424.816 364.36 433.354 359.48L434.106 362.036Z" fill="#935223"/>
<path d="M442.644 366.269C439.647 367.983 441.707 370.907 442.956 372.728C444.206 374.549 446.797 377.589 446.427 378.935C446.068 380.281 440.145 385.792 440.145 385.792C440.145 385.792 441.869 386.702 442.586 387.835C442.586 387.835 453.484 382.364 453.484 379.797C453.484 377.231 448.602 369.745 446.809 367.721C445.027 365.717 444.298 365.329 442.644 366.269Z" fill="#DC67A6"/>
<path d="M442.586 387.844C442.586 387.844 441.926 388.9 440.145 389.113C438.351 389.326 437.461 388.638 436.952 389.113C436.454 389.587 435.274 391.05 434.811 390.914C434.349 390.788 433.932 388.377 434.106 387.834C434.279 387.292 435.563 385.317 440.145 385.791C440.145 385.811 442.158 386.75 442.586 387.844Z" fill="#FAC2B0"/>
<path d="M437.623 349.244C434.534 348.982 431.33 348.982 430.497 352.75C429.664 356.526 430.288 360.603 430.288 360.603C430.288 360.603 436.108 361.659 438.306 355.994C440.504 350.338 437.623 349.244 437.623 349.244Z" fill="#FAC2B0"/>
<path d="M433.77 363.267C433.77 363.267 433.538 360.71 431.467 359.316C431.467 359.316 433.399 356.362 437.345 355.016C437.345 355.016 439.011 359.083 439.358 360.943C439.358 360.952 437.946 362.967 433.77 363.267Z" fill="#FAC2B0"/>
<path d="M432.485 348.324C432.485 348.324 431.745 354.221 438.304 355.993L441.694 356.913C441.694 356.913 442.978 347.607 432.485 348.324Z" fill="#935223"/>
<path d="M437.055 355.906C437.055 355.906 438.871 353.418 440.121 355.229C441.44 357.127 437.83 357.824 437.055 357.243V355.906Z" fill="#FAC2B0"/>
<path d="M439.359 360.952C439.359 360.952 436.976 363.005 433.771 363.266C433.771 363.266 435.368 364.932 435.252 366.278C435.252 366.278 439.44 363.915 440.146 361.591L439.359 360.952Z" fill="#DD549D"/>
<path d="M433.771 363.266C433.771 363.266 432.325 363.74 432.117 365.038C432.117 365.038 431.758 363.77 433.609 362.443C433.597 362.443 433.759 362.898 433.771 363.266Z" fill="#DC67A6"/>
<path opacity="0.1" d="M504.278 712.241C513.182 712.241 520.401 709.67 520.401 706.499C520.401 703.327 513.182 700.756 504.278 700.756C495.374 700.756 488.155 703.327 488.155 706.499C488.155 709.67 495.374 712.241 504.278 712.241Z" fill="black"/>
<path d="M514.816 699.42C514.816 699.42 515.33 702.557 514.816 703.003C514.302 703.448 510.24 702.935 508.679 702.044C507.118 701.143 504.636 701.637 504.636 699.981C504.636 698.325 508.796 699.923 511.646 698.519L514.816 699.42Z" fill="#404040"/>
<path d="M505.344 706.305C505.344 706.305 506.663 708.377 506.246 710.866C506.246 710.866 505.587 712.329 502.601 712.203C499.615 712.077 496.212 713.316 494.68 712.212C493.158 711.108 491.306 709.772 492.595 708.552C493.885 707.332 497.356 709.036 500.4 707.031L505.344 706.305Z" fill="#404040"/>
<path d="M510.366 657.681C510.366 657.681 512.703 660.141 512.761 664.605C512.829 669.069 512.111 679.625 512.111 679.625C512.111 679.625 514.118 683.247 514.642 686.423C515.156 689.6 515.224 699.758 515.224 699.758C515.224 699.758 512.693 700.601 510.948 698.983C510.948 698.983 506.847 684.699 505.897 680.855C504.937 677.01 502.135 659.23 502.135 659.23L510.366 657.681Z" fill="#4A3B19"/>
<path d="M493.148 661.874C493.148 661.874 492.304 665.302 492.721 671.2C493.148 677.098 494.408 686.666 494.408 686.666L499.469 707.128C499.469 707.128 501.941 708.697 506.1 706.528C506.1 706.528 505.509 693.938 505.131 691.633C504.762 689.406 502.785 684.138 502.785 684.138C502.785 684.138 508.33 670.232 505.373 659.763L493.148 661.874Z" fill="#534218"/>
<path d="M510.823 633.935C510.823 633.935 506.101 629.112 502.097 626.992C502.097 626.992 493.779 615.4 492.47 614.131C492.47 614.131 489.833 614.838 489.426 616.814C489.426 616.814 495.039 628.086 496.086 628.812C497.133 629.539 504.831 636.046 506.654 636.811C508.477 637.567 511.191 635.514 510.823 633.935Z" fill="#97C348"/>
<path d="M492.469 614.132C492.469 614.132 493.196 610.549 492.469 610.035C491.742 609.522 491.17 611.904 491.17 611.904C491.17 611.904 489.919 607.914 489.105 608.002C488.29 608.079 485.789 609.628 487.205 612.911C488.62 616.194 489.425 616.814 489.425 616.814C489.425 616.814 490.559 614.81 492.469 614.132Z" fill="#FAC2B0"/>
<path d="M499.071 635.494C499.071 635.494 491.054 636.753 490.84 642.864C490.627 648.974 492.75 651.008 492.925 653.778C493.099 656.547 492.013 661.922 492.75 662.61C493.487 663.307 497.995 664.905 504.539 662.048C511.084 659.191 511.694 658.068 511.646 657.371C511.607 656.673 510.735 648.665 510.783 646.544C510.822 644.423 512.344 635.281 510.822 633.945C509.309 632.589 499.071 635.494 499.071 635.494Z" fill="#83AA3F"/>
<path d="M480.195 619.767C480.195 619.767 481.863 615.274 481.146 614.412C480.428 613.55 479.362 616.271 479.362 616.271C479.362 616.271 478.043 613.802 477.927 612.892C477.81 611.972 476.889 611.855 475.92 612.524C474.941 613.182 473.389 614.16 474.252 616.562C475.115 618.973 476.298 620.92 476.298 620.92L480.195 619.767Z" fill="#FAC2B0"/>
<path d="M495.164 643.813C497.064 642.041 495.591 639.455 494.524 638.39C493.458 637.325 485.246 631.766 485.246 631.766C485.246 631.766 482.25 623.399 480.205 619.767C480.205 619.767 477.17 619.303 476.317 620.93C476.317 620.93 478.75 631.776 480.505 634.894C482.26 638.012 489.231 643.435 490.336 644.423C491.441 645.392 493.923 644.966 495.164 643.813Z" fill="#97C348"/>
<path d="M497.53 624.174C497.53 624.174 495.756 628.832 498.568 633.374L499.072 635.495C499.072 635.495 501.311 636.299 505.742 634.536L505.383 633.219L504.966 626.566L497.53 624.174Z" fill="#FAC2B0"/>
<path d="M500.341 621.085C506.12 619.836 507.351 626.169 507.283 627.602C507.128 631.05 505.373 633.219 505.373 633.219C505.373 633.219 501.505 634.168 500.341 633.48C499.178 632.793 497.375 630.033 497.006 627.36C496.638 624.687 497.161 621.772 500.341 621.085Z" fill="#30302F"/>
</svg>
