<?xml version="1.0" encoding="utf-8"?>
<!-- Generator: Adobe Illustrator 27.7.0, SVG Export Plug-In . SVG Version: 6.00 Build 0)  -->
<svg version="1.1" id="Layer_1" xmlns="http://www.w3.org/2000/svg" xmlns:xlink="http://www.w3.org/1999/xlink" x="0px" y="0px"
	 viewBox="0 0 1920 269.2" style="enable-background:new 0 0 1920 269.2;" xml:space="preserve">
<style type="text/css">
	.st0{fill:#1D1534;}
	.st1{fill:#FFFFFF;}
</style>
<g>
	<path class="st0" d="M1798.4,50.3c-146.1,11.9-142.1,53.7-164.5,87.6c-22.4,33.8-57.9,67.7-182.9,40.8
		c-125-26.9-247.4-35.8-340.8,27.9c-74.7,50.9-147.1,56.7-173.7,56.7s-99-5.8-173.7-56.7C669.4,142.8,547,151.8,422,178.6
		c-125,26.9-160.5-7-182.9-40.8C216.7,104,220.7,62.2,74.6,50.3C43.7,47.7,19.2,41.6,0,33.5v235.8h1920V0
		C1901,23.1,1864.4,44.9,1798.4,50.3z"/>
</g>
<path class="st1" d="M1920,0"/>
</svg>
